Coordinates
version=1
nRows=13
nColumns=40
inDegrees=yes

Units are S.I. units (second, meters, Newtons, ...)
If the header above contains a line with 'inDegrees', this indicates whether rotational values are in degrees (yes) or radians (no).

endheader
time	pelvis_tilt	pelvis_list	pelvis_rotation	pelvis_tx	pelvis_ty	pelvis_tz	hip_flexion_r	hip_adduction_r	hip_rotation_r	knee_angle_r	knee_angle_r_beta	ankle_angle_r	subtalar_angle_r	mtp_angle_r	hip_flexion_l	hip_adduction_l	hip_rotation_l	knee_angle_l	knee_angle_l_beta	ankle_angle_l	subtalar_angle_l	mtp_angle_l	lumbar_extension	lumbar_bending	lumbar_rotation	arm_flex_r	arm_add_r	arm_rot_r	elbow_flex_r	pro_sup_r	wrist_flex_r	wrist_dev_r	arm_flex_l	arm_add_l	arm_rot_l	elbow_flex_l	pro_sup_l	wrist_flex_l	wrist_dev_l
      0.00500000	     -6.04378301	      1.02015329	     10.35485573	     -0.53110775	      0.89550775	      0.20421948	     30.59335834	     -8.11397969	    -28.59988997	      7.29162675	      0.12726289	      0.03525844	     11.40474034	      0.00000000	    -17.07634800	     -0.24958581	    -13.70309905	      6.54532557	      0.11423748	     -2.36823395	     17.38411384	      0.00000000	     14.69304412	     -1.03235394	     -6.37132514	     44.54935210	    -16.23588986	     44.54935210	     75.14250495	     44.94828752	      0.00000000	      0.00000000	     44.54935210	    -16.23588986	     44.54935210	     75.14250495	     44.94828752	      0.00000000	      0.00000000
      0.01000000	     -5.96165316	      0.88982900	     10.46486260	     -0.52598584	      0.89520491	      0.20424942	     30.40396238	     -7.99402312	    -28.50814738	      7.58113156	      0.13231571	     -0.14661193	     11.02899657	      0.00000000	    -17.31975456	     -0.53059364	    -13.58345642	      6.75732007	      0.11793748	     -2.74374445	     17.19237033	      0.00000000	     14.70258473	     -0.82817409	     -6.48197451	     44.54952104	    -16.23512399	     44.54952104	     75.14233219	     44.94846163	      0.00000000	      0.00000000	     44.54952104	    -16.23512399	     44.54952104	     75.14233219	     44.94846163	      0.00000000	      0.00000000
      0.01500000	     -5.82576777	      0.72757332	     10.57513287	     -0.52028446	      0.89496826	      0.20433441	     30.15643356	     -7.82654909	    -28.40536422	      7.91996165	      0.13822941	     -0.39147374	     10.51232166	      0.00000000	    -17.61710266	     -0.87286733	    -13.49915901	      7.01534042	      0.12244079	     -3.23568604	     16.94759583	      0.00000000	     14.65654009	     -0.58342252	     -6.63717973	     44.54968626	    -16.23437515	     44.54968626	     75.14216337	     44.94863141	      0.00000000	      0.00000000	     44.54968626	    -16.23437515	     44.54968626	     75.14216337	     44.94863141	      0.00000000	      0.00000000
      0.02000000	     -5.58135322	      0.50856181	     10.70220312	     -0.51399458	      0.89488271	      0.20439526	     29.75038890	     -7.56842470	    -28.35043288	      8.21246404	      0.14333454	     -0.80104483	      9.63699167	      0.00000000	    -18.03210963	     -1.30269662	    -13.40880171	      7.29204662	      0.12727022	     -3.82164058	     16.53186993	      0.00000000	     14.53141192	     -0.29238106	     -6.87391548	     44.54998969	    -16.23300025	     44.54998969	     75.14185363	     44.94894206	      0.00000000	      0.00000000	     44.54998969	    -16.23300025	     44.54998969	     75.14185363	     44.94894206	      0.00000000	      0.00000000
      0.02500000	     -5.27818178	      0.20826908	     10.83486749	     -0.50727828	      0.89496356	      0.20449312	     29.13386832	     -7.10511184	    -27.97790730	      8.14202103	      0.14210507	     -1.56090419	      8.50138104	      0.00000000	    -18.54948425	     -1.81394873	    -13.10504502	      7.49347765	      0.13078586	     -4.45437959	     15.95804637	      0.00000000	     14.31542664	      0.02703990	     -7.30804587	     44.55078164	    -16.22941448	     44.55078164	     75.14104738	     44.94974491	      0.00000000	      0.00000000	     44.55078164	    -16.22941448	     44.55078164	     75.14104738	     44.94974491	      0.00000000	      0.00000000
      0.03000000	     -5.19980648	      0.03658072	     10.85602038	     -0.50004547	      0.89464496	      0.20481888	     28.92765053	     -6.89200908	    -27.71153433	      8.55413245	      0.14929778	     -1.91891614	      8.24774916	      0.00000000	    -18.80513916	     -2.16833976	    -13.03335801	      7.85541053	      0.13710278	     -5.12616023	     15.76517299	      0.00000000	     14.33146792	      0.26523455	     -7.47408358	     44.55089206	    -16.22891492	     44.55089206	     75.14093527	     44.94985588	      0.00000000	      0.00000000	     44.55089206	    -16.22891492	     44.55089206	     75.14093527	     44.94985588	      0.00000000	      0.00000000
      0.03500000	     -4.80028999	     -0.33028852	     10.96475188	     -0.49251953	      0.89494517	      0.20503547	     28.22188573	     -6.33259542	    -27.47651685	      8.55313152	      0.14928031	     -2.96013032	      6.79482267	      0.00000000	    -19.34335326	     -2.79007695	    -12.95615934	      8.22501301	      0.14355356	     -6.12076787	     14.91072119	      0.00000000	     14.06751704	      0.61472110	     -7.97652573	     44.55193965	    -16.22417874	     44.55193965	     75.13987419	     44.95089866	      0.00000000	      0.00000000	     44.55193965	    -16.22417874	     44.55193965	     75.13987419	     44.95089866	      0.00000000	      0.00000000
      0.04000000	     -4.61042719	     -0.55972665	     10.94991737	     -0.48458979	      0.89488081	      0.20546421	     27.93767349	     -6.04800075	    -27.39511564	      9.10802312	      0.15896499	     -3.51167198	      6.26885613	      0.00000000	    -19.64566066	     -3.23578711	    -13.09416409	      8.73282912	      0.15241662	     -7.10596529	     14.45338869	      0.00000000	     14.01083679	      0.89797053	     -8.17426935	     44.55217129	    -16.22313255	     44.55217129	     75.13964036	     44.95112657	      0.00000000	      0.00000000	     44.55217129	    -16.22313255	     44.55217129	     75.13964036	     44.95112657	      0.00000000	      0.00000000
      0.04500000	     -4.38131882	     -0.82422053	     10.94104062	     -0.47648006	      0.89493637	      0.20594358	     27.58877698	     -5.71119402	    -27.30288301	      9.61924553	      0.16788751	     -4.15176902	      5.65509769	      0.00000000	    -19.96406404	     -3.73193052	    -13.15573283	      9.28536939	      0.16206027	     -8.12161922	     13.88670175	      0.00000000	     13.92247492	      1.22473342	     -8.39593732	     44.55240090	    -16.22209587	     44.55240090	     75.13940883	     44.95135160	      0.00000000	      0.00000000	     44.55240090	    -16.22209587	     44.55240090	     75.13940883	     44.95135160	      0.00000000	      0.00000000
      0.05000000	     -4.00661612	     -1.21993852	     10.94926485	     -0.46836156	      0.89542935	      0.20640430	     26.89291810	     -5.06742035	    -26.84878446	      9.58809217	      0.16734378	     -5.35090616	      4.40098740	      0.00000000	    -20.43005157	     -4.34681033	    -12.98472968	      9.74906364	      0.17015326	     -9.28984996	     12.88781632	      0.00000000	     13.64914979	      1.64631528	     -8.84983583	     44.55374837	    -16.21601868	     44.55374837	     75.13805534	     44.95265353	      0.00000000	      0.00000000	     44.55374837	    -16.21601868	     44.55374837	     75.13805534	     44.95265353	      0.00000000	      0.00000000
      0.05500000	     -3.78278706	     -1.50085963	     10.84886634	     -0.45994845	      0.89565440	      0.20714208	     26.59990142	     -4.70280664	    -26.77534222	     10.22273608	      0.17842040	     -5.96487580	      3.91682071	      0.00000000	    -20.66090289	     -4.84929113	    -13.15398225	     10.44837044	      0.18235847	    -10.51813446	     12.23924621	      0.00000000	     13.54575976	      1.96095161	     -9.02298016	     44.55399850	    -16.21489201	     44.55399850	     75.13780515	     44.95289172	      0.00000000	      0.00000000	     44.55399850	    -16.21489201	     44.55399850	     75.13780515	     44.95289172	      0.00000000	      0.00000000
      0.06000000	     -3.52421406	     -1.79871828	     10.73016112	     -0.45145168	      0.89601981	      0.20786511	     26.25205865	     -4.30471114	    -26.68154367	     10.82939571	      0.18900861	     -6.62619281	      3.36914167	      0.00000000	    -20.88321313	     -5.36450021	    -13.33532844	     11.21851162	      0.19579996	    -11.84119915	     11.43708114	      0.00000000	     13.43037097	      2.31935587	     -9.20941072	     44.55421498	    -16.21391721	     44.55421498	     75.13758885	     44.95309705	      0.00000000	      0.00000000	     44.55421498	    -16.21391721	     44.55421498	     75.13758885	     44.95309705	      0.00000000	      0.00000000
      0.06500000	     -3.21843606	     -2.17083887	     10.65538913	     -0.44312352	      0.89665354	      0.20864067	     25.73085931	     -3.72611560	    -26.30196276	     11.07973568	      0.19337787	     -7.61963301	      2.29696789	      0.00000000	    -21.09385472	     -5.95213441	    -13.22280029	     12.03478167	      0.21004656	    -13.12096116	     10.19111872	      0.00000000	     13.22217222	      2.76599499	     -9.39503001	     44.55496770	    -16.21052985	     44.55496770	     75.13683843	     44.95380512	      0.00000000	      0.00000000	     44.55496770	    -16.21052985	     44.55496770	     75.13683843	     44.95380512	      0.00000000	      0.00000000
